<?xml version="1.0" encoding="UTF-8" standalone="no"?>
<svg xmlns:dc="http://purl.org/dc/elements/1.1/" xmlns:cc="http://creativecommons.org/ns#" xmlns:rdf="http://www.w3.org/1999/02/22-rdf-syntax-ns#" xmlns:svg="http://www.w3.org/2000/svg" xmlns="http://www.w3.org/2000/svg" xmlns:xlink="http://www.w3.org/1999/xlink" xmlns:sodipodi="http://sodipodi.sourceforge.net/DTD/sodipodi-0.dtd" xmlns:inkscape="http://www.inkscape.org/namespaces/inkscape" width="600" height="660" viewBox="-300 -295 600 660" id="svg2" version="1.1" inkscape:version="0.47 r22583" sodipodi:docname="Blason_Vide_Moderne_3D.svg">
  <metadata id="metadata29">
    <rdf:RDF>
      <cc:Work rdf:about="">
        <dc:format>image/svg+xml</dc:format>
        <dc:type rdf:resource="http://purl.org/dc/dcmitype/StillImage"/>
      </cc:Work>
    </rdf:RDF>
  </metadata>
  <sodipodi:namedview pagecolor="#ffffff" bordercolor="#666666" borderopacity="1" objecttolerance="10" gridtolerance="10" guidetolerance="10" inkscape:pageopacity="0" inkscape:pageshadow="2" inkscape:window-width="1440" inkscape:window-height="820" id="namedview27" showgrid="false" inkscape:zoom="0.58568998" inkscape:cx="300" inkscape:cy="330" inkscape:window-x="-8" inkscape:window-y="-8" inkscape:window-maximized="1" inkscape:current-layer="layer3"/>
  <defs id="defs4">
    <inkscape:perspective sodipodi:type="inkscape:persp3d" inkscape:vp_x="0 : 330 : 1" inkscape:vp_y="0 : 1000 : 0" inkscape:vp_z="600 : 330 : 1" inkscape:persp3d-origin="300 : 220 : 1" id="perspective31"/>
    <radialGradient id="Gradient1" gradientUnits="userSpaceOnUse" cy="-80" cx="-75" r="405">
      <stop stop-color="#fff" stop-opacity=".31" offset="0" id="stop7"/>
      <stop stop-color="#fff" stop-opacity=".25" offset=".19" id="stop9"/>
      <stop stop-color="#6b6b6b" stop-opacity=".125" offset=".6" id="stop11"/>
      <stop stop-opacity=".125" offset="1" id="stop13"/>
    </radialGradient>
    <clipPath id="shield_cut">
      <path id="shield" d="M-298.5,-293.5 h597 v517 a70,70 0 0,1 -70,70 h-158.5 a70,70 0 0,0 -70,70 70,70 0 0,0 -70,-70 h-158.5 a70,70 0 0,1 -70,-70z" style="stroke-linecap:round;stroke-linejoin:round"/>
    </clipPath>
    <inkscape:perspective id="perspective2907" inkscape:persp3d-origin="0.5 : 0.33333333 : 1" inkscape:vp_z="1 : 0.5 : 1" inkscape:vp_y="0 : 1000 : 0" inkscape:vp_x="0 : 0.5 : 1" sodipodi:type="inkscape:persp3d"/>
  </defs>
  <g id="layer4" inkscape:label="Fond écu" inkscape:groupmode="layer" sodipodi:insensitive="true">
    <use xlink:href="#shield" id="use18" style="fill:#2b5df2;fill-opacity:1" x="0" y="0" width="600" height="660"/>
  </g>
  <g id="layer3" inkscape:label="Meubles" inkscape:groupmode="layer" sodipodi:insensitive="true">
    <g transform="matrix(2.8972085,0,0,2.8972085,-945.99051,-1390.1802)" id="g2877" sodipodi:insensitive="true">
      <g id="g2840" transform="translate(-13.751541,-2.0835669)">
        <path style="fill:#ffffff;stroke:#000000;stroke-width:1px;stroke-linecap:butt;stroke-linejoin:miter;stroke-opacity:1" d="m 254.70489,552.20318 c 9.14119,1.41381 16.13312,-0.65568 8.63406,-26.21055 -0.66738,-6.37276 1.53205,-12.74552 4.31704,-19.11828 3.46107,-9.81591 -3.45903,-5.5867 -9.55915,-2.46688 5.74204,-12.87094 16.38867,-10.69178 20.66009,-8.3257 l -0.61672,4.93375 c -9.69839,5.72758 -5.42476,10.873 -1.5418,16.03469 27.95505,19.4873 2.94794,68.7817 -21.89352,35.15297 z" id="path2830" sodipodi:nodetypes="cccccccc"/>
        <path style="fill:none;stroke:#000000;stroke-width:1px;stroke-linecap:butt;stroke-linejoin:miter;stroke-opacity:1" d="m 266.88469,530.14909 1.5263,-8.28564 c 5.32491,8.19406 2.39173,13.12465 0.43608,18.53366 l -1.96238,-10.24802 z" id="path2832" sodipodi:nodetypes="cccc"/>
        <path style="fill:#000000;stroke:#000000;stroke-width:1px;stroke-linecap:butt;stroke-linejoin:miter;stroke-opacity:1" d="m 278.69755,496.12115 c 5.88671,1.09053 8.11109,5.00077 9.99144,8.95299 -4.36358,-2.83999 -7.47435,-3.29001 -10.72265,-3.89945" id="path2834" sodipodi:nodetypes="ccc"/>
        <path sodipodi:type="arc" style="fill:#000000;fill-opacity:1;fill-rule:nonzero;stroke:none" id="path2836" sodipodi:cx="277.0224" sodipodi:cy="498.62573" sodipodi:rx="0.96362323" sodipodi:ry="1.079258" d="m 277.98602,498.62573 a 0.96362323,1.079258 0 1 1 -1.92724,0 0.96362323,1.079258 0 1 1 1.92724,0 z" transform="matrix(1.16,0,0,1.0535714,-44.901758,-27.001181)"/>
        <path style="fill:#0a1236;fill-opacity:1;stroke:#000000;stroke-width:1px;stroke-linecap:butt;stroke-linejoin:miter;stroke-opacity:1" d="m 271.43338,563.99793 c 1.00433,2.60875 -0.11147,4.68746 -2.38978,6.47555 -0.70894,0.98404 -0.74394,1.6311 1.00216,1.38762 2.47063,-3.33475 5.39593,-1.81975 8.47989,1.38762 0.59445,-0.0267 1.80656,1.09372 1.07926,-1.38762 -2.56839,-2.50516 -1.67148,-3.22516 2.54396,-2.23561 0.74795,-0.56938 1.29254,-1.1557 -0.38545,-1.92724 -2.83523,-0.74761 -6.70117,-0.24364 -6.86099,-4.23995 l -3.46905,0.53963 z" id="path2838" sodipodi:nodetypes="ccccccccc"/>
      </g>
      <g transform="translate(51.095207,-107.90383)" id="g2847">
        <path sodipodi:nodetypes="cccccccc" id="path2849" d="m 254.70489,552.20318 c 9.14119,1.41381 16.13312,-0.65568 8.63406,-26.21055 -0.66738,-6.37276 1.53205,-12.74552 4.31704,-19.11828 3.46107,-9.81591 -3.45903,-5.5867 -9.55915,-2.46688 5.74204,-12.87094 16.38867,-10.69178 20.66009,-8.3257 l -0.61672,4.93375 c -9.69839,5.72758 -5.42476,10.873 -1.5418,16.03469 27.95505,19.4873 2.94794,68.7817 -21.89352,35.15297 z" style="fill:#ffffff;stroke:#000000;stroke-width:1px;stroke-linecap:butt;stroke-linejoin:miter;stroke-opacity:1"/>
        <path sodipodi:nodetypes="cccc" id="path2851" d="m 266.88469,530.14909 1.5263,-8.28564 c 5.32491,8.19406 2.39173,13.12465 0.43608,18.53366 l -1.96238,-10.24802 z" style="fill:none;stroke:#000000;stroke-width:1px;stroke-linecap:butt;stroke-linejoin:miter;stroke-opacity:1"/>
        <path sodipodi:nodetypes="ccc" id="path2853" d="m 278.69755,496.12115 c 5.88671,1.09053 8.11109,5.00077 9.99144,8.95299 -4.36358,-2.83999 -7.47435,-3.29001 -10.72265,-3.89945" style="fill:#000000;stroke:#000000;stroke-width:1px;stroke-linecap:butt;stroke-linejoin:miter;stroke-opacity:1"/>
        <path transform="matrix(1.16,0,0,1.0535714,-44.901758,-27.001181)" d="m 277.98602,498.62573 a 0.96362323,1.079258 0 1 1 -1.92724,0 0.96362323,1.079258 0 1 1 1.92724,0 z" sodipodi:ry="1.079258" sodipodi:rx="0.96362323" sodipodi:cy="498.62573" sodipodi:cx="277.0224" id="path2855" style="fill:#000000;fill-opacity:1;fill-rule:nonzero;stroke:none" sodipodi:type="arc"/>
        <path sodipodi:nodetypes="ccccccccc" id="path2857" d="m 271.43338,563.99793 c 1.00433,2.60875 -0.11147,4.68746 -2.38978,6.47555 -0.70894,0.98404 -0.74394,1.6311 1.00216,1.38762 2.47063,-3.33475 5.39593,-1.81975 8.47989,1.38762 0.59445,-0.0267 1.80656,1.09372 1.07926,-1.38762 -2.56839,-2.50516 -1.67148,-3.22516 2.54396,-2.23561 0.74795,-0.56938 1.29254,-1.1557 -0.38545,-1.92724 -2.83523,-0.74761 -6.70117,-0.24364 -6.86099,-4.23995 l -3.46905,0.53963 z" style="fill:#0a1236;fill-opacity:1;stroke:#000000;stroke-width:1px;stroke-linecap:butt;stroke-linejoin:miter;stroke-opacity:1"/>
      </g>
      <g id="g2859" transform="translate(117.95243,-1.5809485)">
        <path style="fill:#ffffff;stroke:#000000;stroke-width:1px;stroke-linecap:butt;stroke-linejoin:miter;stroke-opacity:1" d="m 254.70489,552.20318 c 9.14119,1.41381 16.13312,-0.65568 8.63406,-26.21055 -0.66738,-6.37276 1.53205,-12.74552 4.31704,-19.11828 3.46107,-9.81591 -3.45903,-5.5867 -9.55915,-2.46688 5.74204,-12.87094 16.38867,-10.69178 20.66009,-8.3257 l -0.61672,4.93375 c -9.69839,5.72758 -5.42476,10.873 -1.5418,16.03469 27.95505,19.4873 2.94794,68.7817 -21.89352,35.15297 z" id="path2861" sodipodi:nodetypes="cccccccc"/>
        <path style="fill:none;stroke:#000000;stroke-width:1px;stroke-linecap:butt;stroke-linejoin:miter;stroke-opacity:1" d="m 266.88469,530.14909 1.5263,-8.28564 c 5.32491,8.19406 2.39173,13.12465 0.43608,18.53366 l -1.96238,-10.24802 z" id="path2863" sodipodi:nodetypes="cccc"/>
        <path style="fill:#000000;stroke:#000000;stroke-width:1px;stroke-linecap:butt;stroke-linejoin:miter;stroke-opacity:1" d="m 278.69755,496.12115 c 5.88671,1.09053 8.11109,5.00077 9.99144,8.95299 -4.36358,-2.83999 -7.47435,-3.29001 -10.72265,-3.89945" id="path2865" sodipodi:nodetypes="ccc"/>
        <path sodipodi:type="arc" style="fill:#000000;fill-opacity:1;fill-rule:nonzero;stroke:none" id="path2867" sodipodi:cx="277.0224" sodipodi:cy="498.62573" sodipodi:rx="0.96362323" sodipodi:ry="1.079258" d="m 277.98602,498.62573 a 0.96362323,1.079258 0 1 1 -1.92724,0 0.96362323,1.079258 0 1 1 1.92724,0 z" transform="matrix(1.16,0,0,1.0535714,-44.901758,-27.001181)"/>
        <path style="fill:#0a1236;fill-opacity:1;stroke:#000000;stroke-width:1px;stroke-linecap:butt;stroke-linejoin:miter;stroke-opacity:1" d="m 271.43338,563.99793 c 1.00433,2.60875 -0.11147,4.68746 -2.38978,6.47555 -0.70894,0.98404 -0.74394,1.6311 1.00216,1.38762 2.47063,-3.33475 5.39593,-1.81975 8.47989,1.38762 0.59445,-0.0267 1.80656,1.09372 1.07926,-1.38762 -2.56839,-2.50516 -1.67148,-3.22516 2.54396,-2.23561 0.74795,-0.56938 1.29254,-1.1557 -0.38545,-1.92724 -2.83523,-0.74761 -6.70117,-0.24364 -6.86099,-4.23995 l -3.46905,0.53963 z" id="path2869" sodipodi:nodetypes="ccccccccc"/>
      </g>
      <g id="g2886" transform="matrix(1.1174618,0,0,1.1174618,-37.246504,-34.117557)">
        <path style="fill:#fcef3c;fill-opacity:1;stroke:#000000;stroke-width:1px;stroke-linecap:butt;stroke-linejoin:miter;stroke-opacity:1" d="m 261.10995,404.73915 c -0.3347,-2.32735 -4.00018,30.07949 29.40314,38.70157 l 48.75393,62.3246 c 2.83388,1.10946 4.91938,1.09635 3.76963,-3.76963 l -47.74869,-61.06806 c -3.05578,-11.79805 -9.42854,-32.47366 -34.17801,-36.18848 z" id="path2875" sodipodi:nodetypes="cccccc"/>
        <path style="fill:#fcef3c;fill-opacity:1;stroke:#000000;stroke-width:1px;stroke-linecap:butt;stroke-linejoin:miter;stroke-opacity:1" d="m 304.33508,500.99045 45.48691,-53.52879 c 1.62659,-21.85753 12.45003,-35.43791 34.17801,-39.20419 -0.52128,21.43602 -11.29771,34.51601 -29.90576,41.21466 l -45.48691,55.79058 c -3.04881,0.74222 -5.21471,0.30721 -4.27225,-4.27226 z" id="path2871" sodipodi:nodetypes="cccccc"/>
      </g>
    </g>
  </g>
  <g id="layer2" inkscape:label="Reflet final" inkscape:groupmode="layer" sodipodi:insensitive="true">
    <use xlink:href="#shield" fill="url(#Gradient1)" id="use22"/>
  </g>
  <g id="layer1" inkscape:label="Contour final" inkscape:groupmode="layer" sodipodi:insensitive="true">
    <use xlink:href="#shield" style="fill:none;stroke:#000000;stroke-width:3" id="use25" x="0" y="0" width="600" height="660"/>
  </g>
</svg>